<?xml version="1.0" encoding="UTF-8"?>
<svg id="Layer_1" xmlns="http://www.w3.org/2000/svg" version="1.1" viewBox="0 0 512 512">
  <!-- Generator: Adobe Illustrator 30.1.0, SVG Export Plug-In . SVG Version: 2.1.1 Build 136)  -->
  <defs>
    <style>
      .st0 {
        fill: #fff;
      }

      .st1 {
        fill: #ae5da5;
      }

      .st2 {
        fill: #27aae1;
      }

      .st3 {
        fill: #5351a2;
      }
    </style>
  </defs>
  <path class="st0" d="M501.4,440.3c-9.3-34.2-36.1-124.3-40.8-140.1-.4-1.5-1.6-2.5-2.9-2.6l-10.1-.8,34.4,125.4c.7,2.6-1.1,5.2-3.5,5-81.8-8.1-144.8-5.2-211.3,32.9,58.4-52.1,125.9-52.9,195.9-46,1.6.2,2.9-1.6,2.4-3.4l-30.6-129.2c-.4-1.5-1.4-2.6-2.8-2.8-3.4-.5-7-.9-10.6-1.2v7.3c1.6.1,3.2.3,4.7.5.6,0,1.1.5,1.2,1.2,2.3,9.7,19.3,82.9,24.9,112,.2,1-.5,2-1.4,1.9-72-7.3-136.3,1.9-193.9,56.2-58-54.3-122.7-63.5-195.2-56.2-.9,0-1.7-.9-1.5-1.9,5.6-29.1,22.8-102.3,25-112,.2-.7.6-1.1,1.2-1.2,14.1-1.5,29.6-1.7,43.7-.9v-7.6c-16.3-.7-34.1-.2-49.5,2-1.3.2-2.4,1.3-2.8,2.8l-30.8,129.2c-.4,1.8.8,3.6,2.5,3.4,70.5-6.9,138.5-6.1,197.3,46-67-38.1-130.4-40.9-212.8-32.9-2.4.2-4.2-2.4-3.5-5l34.7-125.4-10.2.8c-1.3.1-2.5,1.1-2.9,2.6-4.7,15.8-31.7,105.9-41.1,140.1-1.3,4.6,1.4,9.3,5.5,9.9l198.7,29.6c.7.1,1.4.5,1.9,1.1,11.8,13.5,26.3,20.8,39.7,20.9,13.3,0,27.8-7.4,39.5-20.9.5-.6,1.2-1,1.9-1.1l197.4-29.6c4.1-.6,6.7-5.4,5.5-9.9Z"/>
  <path class="st0" d="M279.7,396.2c-7.2,2.6-13.1,4.1-20.5,5.1-9.4,1.4-17.9.6-27.2-.5-20.3-2.4-38.1-9.2-54.1-22.2-14.1-11.5-26-24.6-34.8-40.9-4.9-9.1-9.5-17.7-12.9-27.6-15.4-44.6-14.7-77.7-14.7-124.6s133-35,133-35c30.1,0,59.6,3.3,88.9,10.3,11.3,2.7,37.9,12.3,38,25.8v16.9c23.5,0,33.7-2.7,53.7,11.5,10.7,7.6,17.5,19.4,19.5,32.8,4.5,29.8-9,58.3-34.1,74.4-20.7,12.8-41.9,18.2-66.5,18.4-8.7,15-22.2,27.7-36,38.3-13.6,10.6-20.3,12.9-32.4,17.3ZM146.6,203c18.4,4.3,35.9,8.2,54.5,8.8l31.2,1c28.4.9,106.1.8,127.5-17.1,4.2-3.5,3.8-9.7.1-13.1-4.4-4-9.8-6.7-15.6-8.6-54-17.4-139.3-17.3-193.6-2-6.7,1.9-13.2,4.9-18.5,8.4-5.4,3.5-4.4,7.4-4.2,12.7l.8,24.9c1.3,37.9,6.9,79.6,26,113,11.8,20.7,29,38.6,51.6,48-27.8-18-41.1-42.6-50.6-76.2-9.1-32.2-9.9-65.1-9.1-100ZM420,260.2c-1-10.9-6.1-19.2-15.3-24.2-9.9-5.4-22-5.2-31.8,0l-2.6,25.5c-1.6,16-5.2,30.9-10.1,46.6,29.6-1.4,58.3-14.9,59.7-47.9Z"/>
  <path class="st3" d="M264.4,123.3c-7.1,7-17.2,11.9-28.6,12.5,8.7-8.5,15.5-17.4,14.7-28.7-1.1-17.2-23.2-25.4-26.5-42.9-4.6-24.2,12.4-47.3,41.1-53-20.4,23.4-21,41.8-.3,66.1,12.9,13.5,13.5,32.2-.5,46Z"/>
  <path class="st2" d="M300.2,135.8c15.2-13.6,25.7-27.4,19.9-44.5-4.9-14.4-25.6-23.3-25.1-42.9.5-16.4,11.1-30.7,28.9-37.2-22.3,39.1,15.7,44.6,25.3,71.2,5.8,26.6-17.1,53.5-49.1,53.4Z"/>
  <path class="st1" d="M200.3,107.7c-6.5,15.9-24.4,28.3-43,28,9.6-9.6,16.3-17.1,17.7-25.6,4.3-25.9-21.9-30.1-27-51.5-4.7-19.9,7.7-42.1,30.6-47.4-11.7,17.6-10.8,34.9,4.1,48.6,13.9,12.8,25.5,28.5,17.5,48Z"/>
  <ellipse class="st0" cx="243.2" cy="186.6" rx="97" ry="17.4"/>
</svg>