<?xml version="1.0" encoding="UTF-8"?>
<svg id="Layer_1" xmlns="http://www.w3.org/2000/svg" version="1.1" viewBox="0 0 512 512">
  <!-- Generator: Adobe Illustrator 30.1.0, SVG Export Plug-In . SVG Version: 2.1.1 Build 136)  -->
  <defs>
    <style>
      .st0 {
        fill: #5351a2;
      }

      .st1 {
        fill: #ae5da5;
      }

      .st2 {
        fill: #27aae1;
      }

      .st3 {
        fill: #333;
      }
    </style>
  </defs>
  <path class="st0" d="M264.4,123.3c-7.1,7-17.2,11.9-28.6,12.5,8.7-8.5,15.5-17.4,14.7-28.7-1.1-17.2-23.2-25.4-26.5-42.9-4.6-24.2,12.4-47.3,41.1-53-20.4,23.4-21,41.8-.3,66.1,12.9,13.5,13.5,32.2-.5,46h.1Z"/>
  <path class="st2" d="M300.2,135.8c15.2-13.6,25.7-27.4,19.9-44.5-4.9-14.4-25.6-23.3-25.1-42.9.5-16.4,11.1-30.7,28.9-37.2-22.3,39.1,15.7,44.6,25.3,71.2,5.8,26.6-17.1,53.5-49.1,53.4h.1Z"/>
  <path class="st1" d="M200.3,107.7c-6.5,15.9-24.4,28.3-43,28,9.6-9.6,16.3-17.1,17.7-25.6,4.3-25.9-21.9-30.1-27-51.5-4.7-19.9,7.7-42.1,30.6-47.4-11.7,17.6-10.8,34.9,4.1,48.6,13.9,12.8,25.5,28.5,17.5,48h0Z"/>
  <g>
    <path class="st3" d="M501.2,440.4h.2c-9.3-34.3-36.1-124.4-40.8-140.2-.4-1.5-1.6-2.5-2.9-2.6l-10.1-.8,34.4,125.4c.7,2.6-1.1,5.2-3.5,5-81.8-8.1-144.8-5.2-211.3,32.9,58.4-52.1,125.9-52.9,195.9-46,1.6.2,2.9-1.6,2.4-3.4l-26.8-113.2c8.8-14.5,12.6-31.9,9.9-49.7-2-13.4-8.8-25.2-19.5-32.8-20-14.2-30.2-11.5-53.7-11.5v-16.9c0-13.5-26.7-23.1-38-25.8-29.3-7-58.8-10.3-88.9-10.3,0,0-133-2.1-133,35s-.4,61.5,5.5,91.1c-13.6-.2-27.8.5-40.3,2.2-1.3.2-2.4,1.3-2.8,2.8l-30.8,129.2c-.4,1.8.8,3.6,2.5,3.4,70.5-6.9,138.5-6.1,197.3,46-67-38.1-130.4-40.9-212.8-32.9-2.4.2-4.2-2.4-3.5-5l34.7-125.4-10.2.8c-1.3.1-2.5,1.1-2.9,2.6-4.7,15.8-31.7,105.9-41.1,140.1-1.3,4.6,1.4,9.3,5.5,9.9l198.7,29.6c.7.1,1.4.5,1.9,1.1,11.8,13.5,26.3,20.8,39.7,20.9,13.3,0,27.8-7.4,39.5-20.9.5-.6,1.2-1,1.9-1.1l197.4-29.6c4.1-.6,6.7-5.4,5.5-9.9ZM372.9,236c9.8-5.2,21.9-5.4,31.8,0,9.2,5,14.3,13.3,15.3,24.2h0c-1.4,33-30.1,46.5-59.7,47.9,4.9-15.7,8.5-30.6,10.1-46.6l2.6-25.5ZM132.2,180.4c5.3-3.5,11.8-6.5,18.5-8.4,54.3-15.3,139.6-15.4,193.6,2,5.8,1.9,11.2,4.6,15.6,8.6,3.7,3.4,4.1,9.6-.1,13.1-21.4,17.9-99.1,18-127.5,17.1l-31.2-1c-18.6-.6-36-4.5-54.4-8.8-.8,34.8,0,67.6,9.1,99.8,9.5,33.6,22.8,58.2,50.6,76.2-22.6-9.4-39.8-27.3-51.6-48-19.1-33.4-24.7-75.1-26-113l-.8-24.9c-.2-5.3-1.2-9.2,4.2-12.7ZM61.8,400.4c-.9,0-1.7-.9-1.5-1.9,5.6-29.1,22.8-102.3,25-112,.2-.7.6-1.1,1.2-1.2,11.6-1.2,24.2-1.6,36.2-1.2,1.9,8.3,4.4,16.9,7.5,26,3.4,9.9,8,18.5,12.9,27.6,8.8,16.3,20.7,29.4,34.8,40.9,16,13,33.8,19.8,54.1,22.2,9.3,1.1,17.8,1.9,27.2.5,7.4-1,13.3-2.5,20.5-5.1h0c12.1-4.4,18.8-6.7,32.4-17.3,13.8-10.6,27.3-23.3,36-38.3,24.6-.2,45.8-5.6,66.5-18.4,6.8-4.3,12.7-9.6,17.6-15.5,6.1,26.5,16.1,70.7,20.2,91.8.2,1-.5,2-1.4,1.9-72-7.3-136.3,1.9-193.9,56.2-58-54.3-122.7-63.5-195.2-56.2Z"/>
    <path class="st3" d="M146.6,203s0,0,0,0c0,0,0-.1,0-.2v.2Z"/>
    <ellipse class="st3" cx="243.2" cy="186.6" rx="97" ry="17.4"/>
  </g>
</svg>